<?xml version="1.0" encoding="iso-8859-1"?>
<!-- Generator: Adobe Illustrator 19.0.0, SVG Export Plug-In . SVG Version: 6.00 Build 0)  -->
<svg version="1.1" id="Capa_1" xmlns="http://www.w3.org/2000/svg" xmlns:xlink="http://www.w3.org/1999/xlink" x="0px" y="0px"
	 viewBox="0 0 512 512" style="enable-background:new 0 0 512 512;" xml:space="preserve">
<circle style="fill:#FF3F84;" cx="256" cy="256" r="256"/>
<path style="fill:#983262;" d="M506.991,306.588L342.447,142.043l-42.093,59.985l-56.414-56.414l-63.686,93.111l95.999,95.999
	L170.5,330.75L54.818,414.321l42.861,42.861C141.245,491.513,196.229,512,256,512C380.065,512,483.508,423.742,506.991,306.588z"/>
<path style="fill:#FFD8B1;" d="M443.246,344.163c-3.059-6.661-10.247-10.452-17.475-9.239c-0.104,0.018-0.206,0.033-0.311,0.047
	l-121.399,15.66c-0.154,0.92-0.353,1.839-0.595,2.755c-3.799,14.37-17.34,23.862-32.092,22.502l-70.086-6.297
	c-4.434-0.396-7.702-4.314-7.304-8.746c0.396-4.434,4.332-7.804,8.746-7.305l70.086,6.297c6.923,0.588,13.285-3.82,15.069-10.568
	c0.972-3.683,0.453-7.526-1.464-10.818c-1.917-3.294-5.002-5.644-8.685-6.616l-90.04-23.781
	c-10.113-2.668-20.724-2.396-30.685,0.798L19.069,353.08c9.079,22.135,21.156,42.723,35.749,61.241l24.055-11.144
	c15.022-8.684,32.962-10.185,49.221-4.104l97.711,36.534c18.025,6.079,37.482,5.091,54.796-2.778l156.026-67.816
	C443.824,360.84,446.734,351.753,443.246,344.163z"/>
<g>
	<path style="fill:#E2BA96;" d="M272.816,359.837c6.924,0.588,13.285-3.82,15.069-10.568c0.972-3.683,0.453-7.526-1.464-10.818
		c-1.917-3.294-5.002-5.644-8.686-6.616L256,326.094v32.232L272.816,359.837z"/>
	<path style="fill:#E2BA96;" d="M443.246,344.163c-3.059-6.661-10.247-10.452-17.475-9.239c-0.104,0.018-0.206,0.033-0.311,0.047
		l-121.399,15.66c-0.154,0.92-0.353,1.839-0.595,2.755c-3.799,14.37-17.34,23.862-32.093,22.502L256,374.506v64.754
		c8.419-0.716,16.732-2.855,24.602-6.432l156.026-67.816C443.824,360.84,446.734,351.753,443.246,344.163z"/>
</g>
<path style="fill:#FFDC00;" d="M357.779,180.743c0.758-30.227-23.094-54.506-53.298-53.093
	c-26.991,1.263-48.487,23.546-48.487,50.849c0-28.356-23.184-51.297-51.631-50.901c-28.673,0.399-51.084,24.771-50.14,53.432
	c2.328,70.649,101.525,106.962,101.77,107.052c0.002,0.001-0.001,0.001,0.001,0C256.249,288.003,355.861,257.214,357.779,180.743z"
	/>
<path style="fill:#FFC000;" d="M357.779,180.743c0.758-30.227-23.094-54.506-53.298-53.093
	c-26.923,1.26-48.374,23.435-48.481,50.645V288.08C256.436,287.945,355.863,257.143,357.779,180.743z"/>
<g>
</g>
<g>
</g>
<g>
</g>
<g>
</g>
<g>
</g>
<g>
</g>
<g>
</g>
<g>
</g>
<g>
</g>
<g>
</g>
<g>
</g>
<g>
</g>
<g>
</g>
<g>
</g>
<g>
</g>
</svg>
