<svg height="512pt" viewBox="0 0 512.00003 512.00003" width="512pt" xmlns="http://www.w3.org/2000/svg"><path d="m256 0c-141.484375 0-256 114.496094-256 256 0 141.484375 114.496094 256 256 256 141.484375 0 256-114.496094 256-256 0-141.484375-114.496094-256-256-256zm0 0" fill="#ff7c48"/><path d="m512 256c0 141.492188-114.503906 256-256 256v-512c141.492188 0 256 114.503906 256 256zm0 0" fill="#ff6426"/><path d="m256 443.695312c-103.496094 0-187.695312-84.199218-187.695312-187.695312s84.199218-187.695312 187.695312-187.695312 187.695312 84.199218 187.695312 187.695312-84.199218 187.695312-187.695312 187.695312zm0-345.273437c-86.886719 0-157.578125 70.691406-157.578125 157.578125s70.691406 157.578125 157.578125 157.578125 157.578125-70.691406 157.578125-157.578125-70.691406-157.578125-157.578125-157.578125zm0 0" fill="#fff5cc"/><path d="m256 68.308594v30.117187c86.890625 0 157.574219 70.683594 157.574219 157.574219s-70.683594 157.574219-157.574219 157.574219v30.117187c103.496094 0 187.691406-84.195312 187.691406-187.691406s-84.195312-187.691406-187.691406-187.691406zm0 0" fill="#ffe477"/><path d="m345.097656 284.160156-89.097656 42.40625-27.980469 13.3125c-20.710937 9.847656-44.59375-5.273437-44.59375-28.160156v-111.4375c0-22.847656 23.832031-38.027344 44.59375-28.160156l27.980469 13.3125 89.097656 42.40625c23.722656 11.292968 23.691406 45.035156 0 56.320312zm0 0" fill="#fff5cc"/><path d="m345.097656 284.160156-89.097656 42.40625v-141.132812l89.097656 42.40625c23.722656 11.292968 23.691406 45.035156 0 56.320312zm0 0" fill="#ffe477"/></svg>