<svg id="Layer_1" enable-background="new 0 0 512.025 512.025" height="512" viewBox="0 0 512.025 512.025" width="512" xmlns="http://www.w3.org/2000/svg"><path d="m462.658 426.969c-7.839 0-14.961-4.628-18.146-11.792l-52.113-117.227c-18.617-41.877-60.257-68.936-106.085-68.936h-57.107v85.004h45.216c16.706 0 31.886 9.864 38.672 25.131l53.399 120.117c14.232 32.018 46.069 52.706 81.108 52.706h64.423v-85.004h-49.367z" fill="#ff3d7d"/><path d="m462.658 426.969c-7.839 0-14.961-4.628-18.146-11.792l-52.113-117.227c-18.617-41.877-60.257-68.936-106.085-68.936h-57.107v85.004h45.216c16.706 0 31.886 9.864 38.672 25.131l53.399 120.117c14.232 32.018 46.069 52.706 81.108 52.706h64.423v-85.004h-49.367z" fill="#ff3d7d"/><path d="m229.207 333.521v48.28h-178.113v-48.28h-30v178.496h30v-36.935h178.113v36.935h30v-178.496zm-178.113 111.562v-33.281h178.113v33.281z" fill="#ff9500"/><path d="m229.207 333.521v48.28h-89.057v30h89.057v33.282h-89.057v30h89.057v36.934h30v-178.496z" fill="#ff641a"/><path d="m21.094 127.029h238.113v221.492h-238.113z" fill="#ffe06a"/><path d="m140.15 127.029h119.056v221.492h-119.056z" fill="#fed330"/><path d="m140.15 204.307c-30.755 0-55.775 25.021-55.775 55.776v88.438h111.551v-88.438c0-30.754-25.021-55.776-55.776-55.776z" fill="#fed330"/><path d="m195.926 260.083c0-30.755-25.021-55.776-55.776-55.776v144.214h55.776z" fill="#fabe2c"/><path d="m140.15.008-140.15 91.724v65.297h280.3v-65.297z" fill="#ff6b6b"/><path d="m280.3 91.732-140.15-91.723v157.02h140.15z" fill="#ff3d7d"/></svg>